Miles Davis
"Kind Of Blue"



1959 Columbia Records CL 1355 (mono)
original US pressing
white label promo
matrix/deadwax info (machine stamped):
XLP47324-1D
XLP47325-1G

originally released August 17, 1959

tracks:
A1 - So What
A2 - Freddie Freeloader
A3 - Blue In Green

B1 - All Blues
B2 - Flamenco Sketches

note: all original pressings had the B side track titles reversed on the label and back of jacket



musicians:
Miles Davis - trumpet
John Coltrane - tenor saxophone
Julian "Cannonball" Adderley - alto saxophone
Bill Evans - piano (except A2)
Paul Chambers - bass
Jimmy Cobb - drums
Wynton Kelly - piano on A2 only

note: Cannonball Adderley's last name mispelled on cover and back of jacket

recorded at Columbia Studios (30th Street), NYC, March 2 and April 22, 1959

vinyl LP transfer at 24-bit 96khz

transfer info:
Nitty Gritty 1.5 RCM
Music Hall MMF 9.1
sticky hand stylus cleaning
Grado Master Reference 1 cartridge
Graham Slee Era Gold Reflex phono preamp
Mytek Stereo192 ADC (analog to digital converter)
cork platter mat, Blue Jean LC-1 interconnects, KAB super record grip Mk2
software used: Soundforge 9.0, ClickRepair 3.0.1 (in manual mode), Flac frontend 1.7.1
transferred March 2010
note: channels summed after manual declicking process

flac fingerprints:
A1 - So What.flac:8d4de989713ae2c20144da3d540ec2c1
A2 - Freddie Freeloader.flac:62218d79b3c22dee11cecfba503296c8
A3 - Blue In Green.flac:b07347952bcbc89d4ddc09941e0048e9
B1 - All Blues.flac:c5bb1e0f16793174e4b9002ecc85feeb
B2 - Flamenco Sketches.flac:b2ebae57dc05674a6695ae1c3b800627

Dynamic Range analysis (Foobar plugin - http://www.pleasurizemusic.com/free-downloads):
--------------------------------------------------------------------------------
Analyzed: Miles Davis / Kind Of Blue
--------------------------------------------------------------------------------

DR Peak RMS Duration Track
--------------------------------------------------------------------------------
DR13 -3.11 dB -19.87 dB 9:14 01-So What
DR13 -0.09 dB -19.02 dB 9:37 02-Freddie Freeloader
DR13 -4.66 dB -23.95 dB 5:27 03-Blue In Green
DR13 -3.74 dB -19.98 dB 11:36 04-All Blues
DR13 -5.32 dB -23.38 dB 9:26 05-Flamenco Sketches
--------------------------------------------------------------------------------

Number of tracks: 5
Maximum peak difference (-0.09 dB - -5.32 dB): 5.23 dB

Official DR value (Song Mode): DR13
========================================================

The original LP, white label promo, mono mix which has never been released on CD.